<svg width="1918" height="597" viewBox="0 0 1918 597" fill="none" xmlns="http://www.w3.org/2000/svg">
<g opacity="0.5">
<path d="M65.0263 182.893C63.0957 165.109 47.7726 151.252 29.1538 151.252C10.5349 151.252 -4.78821 165.109 -6.71875 182.893L65.0263 182.893Z" fill="#FB8A8A"/>
<path d="M65.0263 182.893C63.0957 165.109 47.7726 151.252 29.1538 151.252C10.535 151.252 -4.78821 165.109 -6.71875 182.893L65.0263 182.893Z" fill="#F9CAC6"/>
<path d="M0.955077 354.436L35.6644 388.52C82.8698 339.382 112.111 273.436 113.096 200.788L64.0167 200.788C63.0878 258.342 40.8421 312.461 0.955077 354.436Z" fill="#FFF7F7"/>
<path d="M56.3026 200.787L-155.516 200.787L-4.50537 349.073C33.9196 308.533 55.3656 256.31 56.3026 200.787Z" fill="#F9CAC6"/>
<path d="M-116.688 178.927L24.4354 40.3488C41.883 59.4408 55.6149 81.0394 65.2837 104.613C74.9768 128.234 80.3322 153.211 81.2369 178.927L-116.688 178.927ZM-126.438 182.893L85.3807 182.893C84.4437 127.369 62.9978 75.146 24.5728 34.6061L-126.438 182.893Z" fill="white"/>
<path opacity="0.55" d="M-35.7891 200.785C-33.8585 218.568 -18.5354 232.425 0.0834465 232.425C18.7023 232.425 34.0254 218.568 35.956 200.785L-35.7891 200.785Z" fill="#FB8A8A"/>
<path opacity="0.55" d="M93.1026 182.894L142.182 182.894C141.197 110.245 111.948 44.2919 64.7504 -4.83811L30.041 29.2452C69.92 71.2207 92.1656 125.34 93.1026 182.894Z" fill="#F3B8B3"/>
<path d="M-160.977 -33.7901C-101.97 -31.3312 -46.8485 -7.61487 -4.82898 33.6468C-4.68359 33.7895 -4.53819 33.9402 -4.39279 34.083L30.3004 0.0155724C-18.9567 -48.5513 -86.2994 -79.4142 -160.977 -82L-160.977 -33.7901Z" fill="#FFF7F7"/>
<path d="M-4.82897 360.345C-46.8485 401.607 -101.97 425.323 -160.977 427.782L-160.977 476C-86.2994 473.414 -18.9567 442.551 30.2923 393.976L-4.40085 359.909C-4.54625 360.052 -4.68357 360.203 -4.82897 360.345Z" fill="#FFF7F7"/>
</g>
<g opacity="0.5">
<path d="M1704.71 514.516C1748.94 507.827 1778.21 466.139 1768.68 422.158C1760.3 383.264 1723.12 356.24 1683.17 360.149C1654.64 362.742 1632.14 380.01 1620.51 403.265C1613.13 418.117 1602.61 430.985 1588.93 440.439L1578.39 447.667C1572.7 451.839 1574.14 460.297 1580.71 462.037L1593.57 466.356C1609.56 471.261 1623.28 480.094 1635.01 492.01C1652.47 509.604 1678.46 518.811 1704.71 514.516Z" fill="#F9CAC6"/>
<path d="M1682.68 360.562C1676.71 361.361 1671.02 362.713 1665.33 364.074L1691.35 515.848C1695.62 515.876 1699.89 515.919 1704.44 515.109C1708.99 514.298 1713.54 513.488 1718.37 511.855L1692.06 360.919C1688.93 360.325 1686.09 360.303 1682.68 360.562Z" fill="#FAA7A5" stroke="#FAA7A5" stroke-width="1.2529"/>
<path d="M1768.45 422.778C1761.53 390.996 1734.99 366.642 1703.38 361.617L1728.82 506.695C1758.67 491.487 1776.24 457.647 1768.45 422.778Z" fill="#FAA7A5" stroke="#FAA7A5" stroke-width="1.2529"/>
<path d="M1619.84 403.785C1612.47 418.618 1601.96 431.47 1588.3 440.912L1577.78 448.131C1572.09 452.298 1573.53 460.745 1580.09 462.483L1592.93 466.797C1608.91 471.696 1622.61 480.517 1634.33 492.418C1646.04 504.308 1662.32 512.594 1679.42 515.539L1654.23 369.494C1639.44 376.68 1627.22 388.947 1619.84 403.785Z" fill="#FAA7A5" stroke="#FAA7A5" stroke-width="1.2529"/>
<path d="M1799.57 519.424C1820.28 480.483 1804.18 431.978 1763.04 412.523C1726.48 395.072 1682.58 407.956 1661.54 442.109C1646.77 466.181 1647.14 494.881 1659.47 517.758C1666.92 532.439 1671.53 548.516 1670.72 565.104L1670.76 577.758C1670.48 584.226 1678.2 588.229 1684.19 584.617L1695.3 577.115C1708.4 567.939 1724.08 562.431 1740.62 560.027C1764.01 557.119 1787.37 542.961 1799.57 519.424Z" fill="#FFE6E4"/>
<path d="M1661.66 442.119C1658.54 447.157 1656.27 452.472 1654.29 458.355L1791.88 530.819C1794.44 527.469 1796.99 524.114 1798.98 519.638C1801.25 515.715 1803.23 511.244 1804.36 506.471L1667.06 434.57C1665.35 436.805 1663.07 439.316 1661.66 442.119Z" fill="#F9CAC6"/>
<path d="M1763.23 412.504C1733.26 398.214 1697.93 404.121 1674.9 425.861L1807.64 495.764C1812.97 462.917 1796.06 428.218 1763.23 412.504Z" fill="#F9CAC6"/>
<path d="M1659.33 517.798C1666.78 532.473 1671.39 548.544 1670.58 565.125L1670.61 577.774C1670.34 584.239 1678.05 588.241 1684.04 584.63L1695.14 577.131C1708.24 567.959 1723.91 562.453 1740.45 560.05C1757.27 558.21 1773.22 550.463 1785.74 538.751L1651.5 468.81C1648.69 485.661 1651.02 502.826 1659.33 517.798Z" fill="#F9CAC6"/>
<path d="M1907.77 357.9C1917.75 355.158 1927.16 349.883 1934.56 342.071C1957.63 318.885 1956.96 281.147 1933.77 257.887C1910.29 234.054 1871.46 233.184 1847.25 255.513C1840.13 262.5 1834.73 270.058 1831.9 278.477C1825.38 296.448 1812.58 311.833 1795.76 320.707C1791.19 322.924 1787.77 325.992 1783.8 329.343C1765.29 347.497 1764.23 377.608 1781.41 397.456C1800.6 419.848 1834.87 421.53 1855.66 402.264C1859.08 399.196 1861.63 395.835 1863.62 392.756C1874.41 376.227 1889.23 363.39 1907.77 357.9Z" fill="#FFF7F6"/>
<path d="M1849.09 315.542C1855.06 309.12 1859.61 301.28 1861.86 291.744C1868.34 263.956 1851.16 235.701 1823.19 228.172C1794.36 220.357 1765.03 236.713 1757.13 264.49C1754.86 272.623 1754.89 281.065 1756.05 288.949C1759.52 305.562 1756.71 322.422 1747.63 336.68C1745.35 340.594 1743.66 344.238 1742.53 349.014C1737.16 370.629 1749.78 394.055 1771.47 401.826C1796.3 410.177 1822.23 396.88 1829 372.476C1830.13 369.118 1830.41 365.458 1830.39 361.24C1831.49 343.805 1837.44 327.535 1849.09 315.542Z" fill="#F9CAC6"/>
<path d="M1823.19 228.123C1823.05 228.086 1822.92 228.06 1822.78 228.028C1810.42 276.024 1800.49 306.979 1771.75 400.937C1773.23 401.433 1774.82 402.195 1776.5 403.161C1799.71 408.266 1822.68 395.181 1829 372.411C1830.13 369.053 1830.41 365.393 1830.4 361.175C1831.5 343.751 1837.44 327.485 1849.1 315.487C1855.07 309.065 1859.62 301.225 1861.87 291.69C1868.35 263.902 1851.16 235.651 1823.19 228.123Z" fill="#F9CAC6"/>
<path d="M1799.19 338.188C1792.39 358.384 1766.22 428.743 1766.35 428.769" stroke="#FFF7F6" stroke-width="6" stroke-miterlimit="10" stroke-linecap="round" stroke-linejoin="round"/>
</g>
</svg>
